<?xml version="1.0" encoding="UTF-8"?>
<svg width="800" height="450" viewBox="0 0 800 450" xmlns="http://www.w3.org/2000/svg">
  <!-- 배경 -->
  <rect width="800" height="450" fill="#111122"/>
  
  <!-- 도시 실루엣 -->
  <g fill="#223355" stroke="#334466" stroke-width="1">
    <rect x="100" y="380" width="40" height="70" />
    <rect x="160" y="350" width="30" height="100" />
    <rect x="210" y="320" width="50" height="130" />
    <rect x="280" y="300" width="35" height="150" />
    <rect x="330" y="280" width="45" height="170" />
    <rect x="390" y="250" width="30" height="200" />
    <rect x="440" y="270" width="55" height="180" />
    <rect x="510" y="310" width="40" height="140" />
    <rect x="570" y="340" width="35" height="110" />
    <rect x="620" y="370" width="45" height="80" />
    <rect x="680" y="390" width="30" height="60" />
    
    <!-- 고층 건물 -->
    <rect x="350" y="220" width="20" height="230" />
    <rect x="380" y="200" width="25" height="250" />
    <rect x="415" y="180" width="30" height="270" />
    <rect x="455" y="230" width="22" height="220" />
  </g>
  
  <!-- 그리드 -->
  <g stroke="#00aa44" stroke-width="0.5" opacity="0.2">
    <defs>
      <pattern id="grid" width="40" height="40" patternUnits="userSpaceOnUse">
        <path d="M 40 0 L 0 0 0 40" fill="none" />
      </pattern>
    </defs>
    <rect width="800" height="450" fill="url(#grid)" />
  </g>
  
  <!-- 미사일 방어 시스템 -->
  <g>
    <!-- 발사대 1 -->
    <circle cx="200" cy="300" r="40" fill="none" stroke="#00aaff" stroke-width="1" opacity="0.3" />
    <rect x="196" y="295" width="8" height="15" fill="#666666" stroke="#00ff00" stroke-width="1" />
    <rect x="192" y="310" width="16" height="4" fill="#666666" stroke="#00ff00" stroke-width="1" />
    
    <!-- 발사대 2 -->
    <circle cx="500" cy="350" r="40" fill="none" stroke="#00aaff" stroke-width="1" opacity="0.3" />
    <rect x="496" y="345" width="8" height="15" fill="#666666" stroke="#00ff00" stroke-width="1" />
    <rect x="492" y="360" width="16" height="4" fill="#666666" stroke="#00ff00" stroke-width="1" />
    
    <!-- 공장 -->
    <rect x="350" y="350" width="20" height="20" fill="#555555" stroke="#00ff00" stroke-width="1" />
    <rect x="352" y="340" width="16" height="10" fill="#444444" stroke="#00ff00" stroke-width="1" />
    
    <!-- 방어 미사일 1 -->
    <path d="M 200,295 L 220,200 L 240,150 L 300,100" stroke="#00ffff" stroke-width="2" fill="none" stroke-linecap="round" />
    <circle cx="300" cy="100" r="3" fill="#00ffff" />
    
    <!-- 방어 미사일 2 -->
    <path d="M 500,345 L 480,220 L 460,180 L 420,120" stroke="#00ffff" stroke-width="2" fill="none" stroke-linecap="round" />
    <circle cx="420" cy="120" r="3" fill="#00ffff" />
    
    <!-- 적 미사일 1 -->
    <path d="M 50,50 L 100,100 L 150,150 L 200,200 L 240,270" stroke="#ff3300" stroke-width="2" fill="none" stroke-linecap="round" />
    <circle cx="240" cy="270" r="3" fill="#ff3300" />
    
    <!-- 적 미사일 2 -->
    <path d="M 750,80 L 700,120 L 650,160 L 600,200 L 520,280" stroke="#ff3300" stroke-width="2" fill="none" stroke-linecap="round" />
    <circle cx="520" cy="280" r="3" fill="#ff3300" />
    
    <!-- 적 미사일 3 -->
    <path d="M 400,50 L 400,150" stroke="#ff3300" stroke-width="2" fill="none" stroke-linecap="round" />
    <circle cx="400" cy="150" r="3" fill="#ff3300" />
    
    <!-- 폭발 효과 1 -->
    <circle cx="300" cy="100" r="15" fill="none" stroke="#ffcc00" stroke-width="2" opacity="0.7">
      <animate attributeName="r" from="0" to="20" dur="1s" repeatCount="indefinite" />
      <animate attributeName="opacity" from="0.7" to="0" dur="1s" repeatCount="indefinite" />
    </circle>
    
    <!-- 폭발 효과 2 -->
    <circle cx="450" cy="180" r="12" fill="none" stroke="#ffcc00" stroke-width="2" opacity="0.5">
      <animate attributeName="r" from="0" to="15" dur="0.8s" repeatCount="indefinite" />
      <animate attributeName="opacity" from="0.5" to="0" dur="0.8s" repeatCount="indefinite" />
    </circle>
  </g>
  
  <!-- UI 요소 -->
  <g>
    <!-- 상단 UI 패널 -->
    <rect x="200" y="10" width="400" height="30" rx="5" ry="5" fill="rgba(0,0,0,0.7)" stroke="#00ff00" stroke-width="1" />
    <text x="220" y="30" font-family="Arial" font-size="14" fill="white">웨이브: 3 (15초)</text>
    <text x="350" y="30" font-family="Arial" font-size="14" fill="white">도시: 87.5%</text>
    <text x="500" y="30" font-family="Arial" font-size="14" fill="white">자금: $350</text>
    
    <!-- 왼쪽 카드 패널 -->
    <rect x="10" y="380" width="180" height="60" rx="5" ry="5" fill="rgba(0,0,0,0.7)" stroke="#00ff00" stroke-width="1" />
    <text x="20" y="400" font-family="Arial" font-size="12" fill="white">발사대 ($100)</text>
    <text x="20" y="425" font-family="Arial" font-size="12" fill="white">공장 ($100)</text>
    
    <!-- 업그레이드 메뉴 -->
    <g opacity="0.9">
      <rect x="250" y="100" width="300" height="250" rx="10" ry="10" fill="rgba(0,0,0,0.8)" stroke="#00ff00" stroke-width="2" />
      <text x="310" y="130" font-family="Arial" font-size="20" fill="#00ff00">업그레이드 메뉴</text>
      
      <!-- 탭 버튼 -->
      <rect x="270" y="150" width="80" height="30" rx="5" ry="5" fill="rgba(0, 255, 0, 0.3)" stroke="#00ff00" stroke-width="1" />
      <text x="285" y="170" font-family="Arial" font-size="14" fill="white">발사대</text>
      
      <rect x="360" y="150" width="80" height="30" rx="5" ry="5" fill="rgba(0, 0, 0, 0.5)" stroke="#00ff00" stroke-width="1" />
      <text x="380" y="170" font-family="Arial" font-size="14" fill="white">공장</text>
      
      <rect x="450" y="150" width="80" height="30" rx="5" ry="5" fill="rgba(0, 0, 0, 0.5)" stroke="#00ff00" stroke-width="1" />
      <text x="475" y="170" font-family="Arial" font-size="14" fill="white">도시</text>
      
      <!-- 업그레이드 항목 -->
      <rect x="270" y="200" width="260" height="40" rx="5" ry="5" fill="rgba(0, 0, 0, 0.5)" stroke="#00ff00" stroke-width="1" />
      <text x="280" y="220" font-family="Arial" font-size="14" fill="#00ffff">방어 범위</text>
      <rect x="390" y="210" width="120" height="10" rx="5" ry="5" fill="rgba(0, 0, 0, 0.8)" stroke="#00ff00" stroke-width="1" />
      <rect x="390" y="210" width="60" height="10" rx="5" ry="5" fill="#00ff00" />
      <text x="280" y="230" font-family="Arial" font-size="12" fill="white">레벨: 5/10</text>
      
      <rect x="270" y="250" width="260" height="40" rx="5" ry="5" fill="rgba(0, 0, 0, 0.5)" stroke="#00ff00" stroke-width="1" />
      <text x="280" y="270" font-family="Arial" font-size="14" fill="#00ffff">미사일 용량</text>
      <rect x="390" y="260" width="120" height="10" rx="5" ry="5" fill="rgba(0, 0, 0, 0.8)" stroke="#00ff00" stroke-width="1" />
      <rect x="390" y="260" width="36" height="10" rx="5" ry="5" fill="#00ff00" />
      <text x="280" y="280" font-family="Arial" font-size="12" fill="white">레벨: 3/10</text>
      
      <rect x="270" y="300" width="260" height="40" rx="5" ry="5" fill="rgba(0, 0, 0, 0.5)" stroke="#00ff00" stroke-width="1" />
      <text x="280" y="320" font-family="Arial" font-size="14" fill="#00ffff">발사 속도</text>
      <rect x="390" y="310" width="120" height="10" rx="5" ry="5" fill="rgba(0, 0, 0, 0.8)" stroke="#00ff00" stroke-width="1" />
      <rect x="390" y="310" width="24" height="10" rx="5" ry="5" fill="#00ff00" />
      <text x="280" y="330" font-family="Arial" font-size="12" fill="white">레벨: 2/10</text>
    </g>
  </g>
</svg> 